<?xml version="1.0" encoding="iso-8859-1"?>
<!-- Generator: Adobe Illustrator 16.0.0, SVG Export Plug-In . SVG Version: 6.00 Build 0)  -->
<!DOCTYPE svg PUBLIC "-//W3C//DTD SVG 1.1//EN" "http://www.w3.org/Graphics/SVG/1.1/DTD/svg11.dtd">
<svg version="1.1" id="Layer_1" xmlns="http://www.w3.org/2000/svg" xmlns:xlink="http://www.w3.org/1999/xlink" x="0px" y="0px"
	 width="150px" height="150px" viewBox="0 0 150 150" style="enable-background:new 0 0 150 150;" xml:space="preserve">
<g>
	<circle style="fill:#FFD994;" cx="75" cy="75" r="69.384"/>
	<path style="fill:#231F20;" d="M144.534,75.002c0,0-0.01,0.427-0.028,1.252c-0.034,0.825,0,2.047-0.146,3.646
		c-0.198,3.194-0.711,7.885-2.237,13.676c-1.556,5.758-4.04,12.698-8.542,19.79c-4.457,7.069-10.797,14.397-19.37,20.315
		c-4.279,2.949-9.098,5.512-14.34,7.524c-5.236,2.03-10.941,3.355-16.863,4.029c-1.48,0.177-2.983,0.23-4.488,0.337
		c-1.517,0.004-3.016,0.104-4.57,0.025c-0.75-0.029-1.503-0.059-2.258-0.088c-0.759-0.04-1.543-0.131-2.316-0.195
		c-1.561-0.108-3.088-0.366-4.636-0.58c-3.075-0.53-6.168-1.181-9.203-2.142c-1.534-0.423-3.023-1.008-4.537-1.534l-2.23-0.912
		c-0.749-0.295-1.486-0.622-2.211-0.978c-11.726-5.426-22.262-14.299-29.75-25.544c-1.895-2.795-3.543-5.766-5.035-8.82
		c-1.483-3.063-2.683-6.266-3.718-9.523c-1.044-3.26-1.792-6.615-2.369-10.002c-0.545-3.395-0.802-6.834-0.889-10.278
		c-0.008-3.416,0.155-6.901,0.609-10.32c0.487-3.414,1.142-6.812,2.11-10.123c0.996-3.299,2.161-6.549,3.615-9.665
		c1.462-3.107,3.086-6.135,4.964-8.992c7.474-11.462,18.248-20.418,30.161-25.75c11.92-5.393,24.914-7.063,36.78-5.632
		C88.971,5.25,94.68,6.607,99.917,8.668c5.243,2.041,10.058,4.627,14.333,7.591c8.566,5.948,14.9,13.284,19.354,20.36
		c4.502,7.096,6.986,14.04,8.538,19.801c1.524,5.792,2.03,10.488,2.224,13.677c0.145,1.595,0.109,2.825,0.143,3.65
		C144.525,74.574,144.534,75.002,144.534,75.002z M144.233,74.999c0,0-0.013-0.423-0.037-1.246
		c-0.041-0.822-0.017-2.046-0.176-3.632c-0.22-3.169-0.747-7.848-2.426-13.55c-0.773-2.867-1.952-5.945-3.429-9.192
		c-1.475-3.25-3.371-6.625-5.696-10.015c-4.638-6.776-11.183-13.56-19.626-19.005c-4.227-2.699-8.9-5.08-13.959-6.943
		c-5.058-1.864-10.515-3.155-16.201-3.79c-1.422-0.175-2.829-0.228-4.269-0.338c-0.741-0.015-1.485-0.031-2.231-0.046l-1.121-0.023
		l-1.061,0.029c-0.733,0.019-1.469,0.038-2.208,0.057c-0.737,0.026-1.474,0.104-2.215,0.153c-1.484,0.078-2.961,0.305-4.452,0.485
		c-2.964,0.465-5.951,1.041-8.887,1.92c-1.484,0.386-2.928,0.924-4.4,1.397l-2.17,0.833c-0.729,0.269-1.448,0.569-2.156,0.898
		c-11.452,4.963-21.865,13.45-29.221,24.374C10.883,48.239,6.637,61.525,6.438,75.001c0,3.365,0.163,6.737,0.611,10.078
		c0.483,3.332,1.125,6.647,2.077,9.878c0.988,3.214,2.139,6.38,3.572,9.411c1.441,3.022,3.038,5.968,4.882,8.743
		c7.341,11.142,17.993,19.712,29.633,24.581c0.719,0.324,1.448,0.621,2.188,0.885l2.202,0.818c1.493,0.465,2.958,0.989,4.462,1.354
		c2.977,0.844,5.999,1.379,8.992,1.802c1.503,0.159,3,0.365,4.476,0.42c0.743,0.038,1.468,0.104,2.218,0.12
		c0.755,0.009,1.508,0.018,2.259,0.026c1.448,0.052,2.933-0.072,4.382-0.098c1.45-0.13,2.896-0.204,4.319-0.399
		c5.7-0.691,11.162-2.015,16.221-3.909c5.061-1.892,9.729-4.296,13.952-7.009c8.437-5.475,14.976-12.266,19.609-19.05
		c2.325-3.392,4.221-6.769,5.695-10.021c1.477-3.249,2.654-6.329,3.426-9.197c1.676-5.703,2.196-10.388,2.412-13.553
		c0.157-1.582,0.131-2.813,0.171-3.636C144.222,75.422,144.233,74.999,144.233,74.999z"/>
</g>
<radialGradient id="SVGID_1_" cx="159.9531" cy="89.043" r="27.9071" gradientTransform="matrix(0.6457 0 0 0.7593 16.3965 21.4344)" gradientUnits="userSpaceOnUse">
	<stop  offset="0" style="stop-color:#FFAE94"/>
	<stop  offset="1" style="stop-color:#FFD994"/>
</radialGradient>
<ellipse style="fill:url(#SVGID_1_);" cx="119.685" cy="89.043" rx="20.64" ry="23.151"/>
<radialGradient id="SVGID_2_" cx="24.8877" cy="89.043" r="27.9071" gradientTransform="matrix(0.6457 0 0 0.7593 16.3965 21.4344)" gradientUnits="userSpaceOnUse">
	<stop  offset="0" style="stop-color:#FFAE94"/>
	<stop  offset="1" style="stop-color:#FFD994"/>
</radialGradient>
<ellipse style="fill:url(#SVGID_2_);" cx="32.467" cy="89.043" rx="20.64" ry="23.151"/>
<path style="fill:#FFFFFF;stroke:#231F20;stroke-miterlimit:10;" d="M106.313,126.83c-5.388,2.161-64.605,4.118-68.334-1.176
	c-6.582-9.343-15.726-33.341-10.813-32.686c28.207,3.761,72.8,1.894,103.344,1.893C136.473,94.861,129.986,117.333,106.313,126.83z"
	/>
<path style="fill:#FFFFFF;stroke:#231F20;stroke-miterlimit:10;" d="M63.6,65.371c0,2.337-1.895,4.231-4.231,4.231H44.208
	c-2.337,0-4.231-1.895-4.231-4.231V43.158c0-2.337,2.012,1.411,4.348,1.411c0,0,3.673,1.883,7.463,1.883
	c2.337,0,11.812,5.476,11.812,7.813C63.6,59.817,63.6,65.371,63.6,65.371z"/>
<path style="fill:#FFFFFF;stroke:#231F20;stroke-miterlimit:10;" d="M114.606,65.371c0,2.337-1.894,4.231-4.23,4.231H95.92
	c-2.336,0-4.231-1.895-4.231-4.231c0,0,0-5.553,0-11.106c0-2.336,9.123-15.337,11.459-15.337c3.614,0,7.229,0,7.229,0
	c2.337,0,4.23,1.894,4.23,4.231V65.371z"/>
<path style="fill:#231F20;stroke:#231F20;stroke-miterlimit:10;" d="M67.196,52.101c-0.444,1.357-1.723,2.157-2.859,1.786
	l-30.465-9.953c-1.135-0.371-1.696-1.772-1.253-3.13l0,0c0.443-1.357,1.724-2.157,2.859-1.786l30.465,9.953
	C67.079,49.342,67.64,50.743,67.196,52.101L67.196,52.101z"/>
<path style="fill:#231F20;stroke:#231F20;stroke-miterlimit:10;" d="M115.673,32.097c0.822,1.167,0.698,2.671-0.277,3.359
	L89.201,53.923c-0.977,0.689-2.436,0.301-3.258-0.866l0,0c-0.822-1.167-0.698-2.671,0.278-3.359l26.193-18.468
	C113.392,30.542,114.85,30.93,115.673,32.097L115.673,32.097z"/>
<path style="fill:#FFDC7F;stroke:#231F20;stroke-miterlimit:10;" d="M96.508,82.173c0,2.338-12.363,6.87-14.699,6.87h-9.172
	c-2.337,0-13.738-1.007-13.738-3.344l9.507-25.503c0-2.336,1.895-4.231,4.231-4.231h9.172c2.336,0,4.23,1.895,4.23,4.231
	L96.508,82.173z"/>
<g>
	<ellipse style="fill:#7FFF8D;" cx="103.218" cy="55.996" rx="4.173" ry="4.877"/>
	<path style="fill:#231F20;" d="M107.341,55.998c0,0-0.012-0.108-0.033-0.315c-0.038-0.202-0.009-0.524-0.148-0.884
		c-0.058-0.182-0.128-0.381-0.211-0.59c-0.097-0.205-0.24-0.413-0.368-0.637c-0.28-0.438-0.695-0.854-1.181-1.215
		c-0.241-0.179-0.526-0.314-0.8-0.472c-0.307-0.075-0.593-0.266-0.935-0.271c-0.146-0.021-0.375-0.069-0.466-0.076
		c-0.196,0.008-0.395,0.016-0.596,0.024c-0.219-0.011-0.354,0.068-0.532,0.107c-0.169,0.052-0.355,0.071-0.522,0.18
		c-0.744,0.277-1.327,0.942-1.739,1.67c-0.432,0.735-0.499,1.665-0.492,2.455c0.094,0.422,0.095,0.921,0.27,1.272
		c0.067,0.188,0.113,0.378,0.192,0.561l0.285,0.534c0.423,0.663,0.937,1.289,1.606,1.587c0.648,0.307,1.32,0.487,1.996,0.368
		c0.428,0,0.614-0.176,0.917-0.23c0.267-0.145,0.559-0.274,0.801-0.448c0.488-0.352,0.904-0.766,1.187-1.202
		c0.129-0.224,0.272-0.429,0.369-0.636c0.084-0.212,0.155-0.412,0.213-0.594c0.141-0.361,0.112-0.673,0.152-0.875
		C107.328,56.105,107.341,55.998,107.341,55.998z M107.44,55.994c0,0-0.007,0.114-0.02,0.323c-0.031,0.207,0.004,0.524-0.083,0.909
		c-0.042,0.193-0.081,0.41-0.118,0.651c-0.056,0.234-0.157,0.477-0.247,0.748c-0.209,0.524-0.529,1.109-1.045,1.636
		c-0.252,0.267-0.585,0.472-0.929,0.691c-0.382,0.153-0.86,0.369-1.21,0.379c-0.834,0.193-1.819-0.045-2.625-0.5
		c-0.84-0.454-1.44-1.248-1.878-2.079l-0.27-0.66c-0.073-0.229-0.112-0.477-0.167-0.712c-0.127-0.492-0.047-0.904-0.077-1.36
		c0.088-0.507,0.083-0.943,0.265-1.383c0.07-0.218,0.123-0.44,0.209-0.649l0.294-0.612c0.448-0.767,0.979-1.522,1.746-1.997
		c0.167-0.149,0.391-0.226,0.602-0.323c0.211-0.085,0.44-0.208,0.63-0.225c0.197-0.039,0.393-0.077,0.585-0.115
		c0.299-0.022,0.455,0.02,0.688,0.029c0.436,0.004,0.815,0.206,1.192,0.337c0.338,0.207,0.677,0.406,0.93,0.667
		c0.519,0.518,0.841,1.1,1.052,1.622c0.09,0.271,0.192,0.511,0.248,0.747c0.038,0.243,0.078,0.46,0.12,0.654
		c0.087,0.387,0.054,0.693,0.086,0.901C107.433,55.881,107.44,55.994,107.44,55.994z"/>
</g>
<g>
	<ellipse style="fill:#7FFF8D;" cx="56.1" cy="57.687" rx="2.798" ry="3.422"/>
	<path style="fill:#231F20;" d="M58.849,57.688c0,0-0.008-0.074-0.023-0.216c-0.026-0.139-0.01-0.361-0.107-0.607
		c-0.076-0.25-0.198-0.54-0.415-0.829c-0.198-0.293-0.487-0.568-0.811-0.799c-0.153-0.127-0.347-0.197-0.516-0.313
		c-0.199-0.041-0.375-0.181-0.592-0.184l-0.279-0.061l-0.412,0.004c-0.157-0.012-0.224,0.043-0.343,0.061
		c-0.109,0.024-0.229,0.041-0.342,0.112c-0.5,0.176-0.901,0.629-1.16,1.135c-0.288,0.511-0.296,1.129-0.273,1.693
		c0.071,0.24,0.084,0.628,0.207,0.844l0.137,0.366l0.189,0.355c0.269,0.446,0.605,0.856,1.028,1.051
		c0.412,0.202,0.814,0.319,1.25,0.246c0.31,0,0.371-0.121,0.57-0.141c0.167-0.105,0.364-0.168,0.52-0.291
		c0.327-0.221,0.618-0.494,0.818-0.785c0.218-0.285,0.341-0.58,0.418-0.831c0.098-0.247,0.083-0.46,0.11-0.599
		C58.839,57.762,58.849,57.688,58.849,57.688z M58.948,57.685c0,0-0.003,0.079-0.01,0.224c-0.018,0.144,0.003,0.36-0.041,0.63
		c-0.024,0.135-0.045,0.286-0.064,0.455c-0.025,0.167-0.09,0.338-0.137,0.535c-0.116,0.379-0.309,0.813-0.656,1.213
		c-0.159,0.212-0.406,0.36-0.641,0.538c-0.271,0.124-0.66,0.295-0.886,0.303c-0.6,0.152-1.345-0.032-1.911-0.393
		c-0.596-0.358-1.004-0.941-1.288-1.546l-0.179-0.473c-0.037-0.17-0.064-0.345-0.093-0.516c-0.074-0.366-0.005-0.605-0.017-0.969
		c0.1-0.648,0.251-1.273,0.548-1.829c0.294-0.545,0.637-1.085,1.156-1.462c0.226-0.199,0.604-0.353,0.872-0.44l0.4-0.096
		c0.242-0.021,0.338,0.009,0.514,0.015c0.318,0.004,0.592,0.158,0.863,0.26c0.233,0.167,0.483,0.307,0.644,0.515
		c0.351,0.39,0.546,0.822,0.664,1.2c0.047,0.196,0.111,0.365,0.138,0.534c0.019,0.171,0.041,0.323,0.066,0.458
		c0.043,0.271,0.024,0.479,0.043,0.622C58.944,57.606,58.948,57.685,58.948,57.685z"/>
</g>
<radialGradient id="SVGID_3_" cx="136.001" cy="54.9614" r="2.9169" gradientTransform="matrix(0.6457 0 0 0.7686 16.3965 12.7166)" gradientUnits="userSpaceOnUse">
	<stop  offset="0" style="stop-color:#FFFFFF"/>
	<stop  offset="1" style="stop-color:#7FFF8D"/>
</radialGradient>
<ellipse style="fill:url(#SVGID_3_);" cx="104.218" cy="54.961" rx="2.157" ry="2.42"/>
<radialGradient id="SVGID_4_" cx="61.4863" cy="57.686" r="2.465" gradientTransform="matrix(0.6457 0 0 0.7686 16.3965 13.347)" gradientUnits="userSpaceOnUse">
	<stop  offset="0" style="stop-color:#FFFFFF"/>
	<stop  offset="1" style="stop-color:#7FFF8D"/>
</radialGradient>
<ellipse style="fill:url(#SVGID_4_);" cx="56.101" cy="57.686" rx="1.823" ry="2.045"/>
</svg>
